<svg width="165" height="181" viewBox="0 0 165 181" fill="none" xmlns="http://www.w3.org/2000/svg">
<path d="M61.8153 138.097L57.0898 123.335H59.0925L61.4552 131.301C61.7252 132.171 61.9578 132.989 62.1528 133.754C62.3628 134.504 62.6103 135.314 62.8954 136.184H62.9854C63.2554 135.314 63.4954 134.504 63.7055 133.754C63.9155 132.989 64.148 132.171 64.403 131.301L66.7658 123.335H68.6785L63.998 138.097H61.8153ZM74.9221 138.367C74.037 138.367 73.2044 138.142 72.4243 137.692C71.6593 137.242 71.0367 136.589 70.5566 135.734C70.0916 134.879 69.8591 133.851 69.8591 132.651C69.8591 131.421 70.0916 130.378 70.5566 129.523C71.0367 128.668 71.6593 128.016 72.4243 127.566C73.2044 127.116 74.037 126.891 74.9221 126.891C75.8222 126.891 76.6548 127.116 77.4199 127.566C78.185 128.016 78.8 128.668 79.2651 129.523C79.7451 130.378 79.9852 131.421 79.9852 132.651C79.9852 133.851 79.7451 134.879 79.2651 135.734C78.8 136.589 78.185 137.242 77.4199 137.692C76.6548 138.142 75.8222 138.367 74.9221 138.367ZM74.9221 136.837C75.8672 136.837 76.6248 136.454 77.1949 135.689C77.7799 134.909 78.0724 133.896 78.0724 132.651C78.0724 131.391 77.7799 130.371 77.1949 129.591C76.6248 128.811 75.8672 128.421 74.9221 128.421C73.992 128.421 73.2344 128.811 72.6494 129.591C72.0643 130.371 71.7718 131.391 71.7718 132.651C71.7718 133.896 72.0643 134.909 72.6494 135.689C73.2344 136.454 73.992 136.837 74.9221 136.837ZM83.3483 138.097V127.161H85.1935V138.097H83.3483ZM84.2934 124.91C83.9334 124.91 83.6333 124.805 83.3933 124.595C83.1683 124.37 83.0558 124.07 83.0558 123.695C83.0558 123.335 83.1683 123.043 83.3933 122.818C83.6333 122.593 83.9334 122.48 84.2934 122.48C84.6534 122.48 84.946 122.593 85.171 122.818C85.411 123.043 85.531 123.335 85.531 123.695C85.531 124.07 85.411 124.37 85.171 124.595C84.946 124.805 84.6534 124.91 84.2934 124.91ZM93.6895 138.367C92.7294 138.367 91.8593 138.142 91.0792 137.692C90.2991 137.242 89.684 136.589 89.234 135.734C88.7839 134.879 88.5589 133.851 88.5589 132.651C88.5589 131.421 88.799 130.378 89.279 129.523C89.7741 128.668 90.4191 128.016 91.2142 127.566C92.0243 127.116 92.8944 126.891 93.8245 126.891C94.5446 126.891 95.1596 127.018 95.6697 127.273C96.1947 127.528 96.6448 127.828 97.0198 128.173L96.0747 129.388C95.7597 129.103 95.4222 128.871 95.0621 128.691C94.7171 128.511 94.327 128.421 93.892 128.421C93.2319 128.421 92.6394 128.601 92.1143 128.961C91.6043 129.306 91.1992 129.801 90.8992 130.446C90.6141 131.076 90.4716 131.811 90.4716 132.651C90.4716 133.896 90.7792 134.909 91.3942 135.689C92.0243 136.454 92.8419 136.837 93.847 136.837C94.357 136.837 94.8296 136.732 95.2646 136.522C95.6997 136.297 96.0822 136.034 96.4123 135.734L97.2223 136.972C96.7273 137.407 96.1797 137.752 95.5797 138.007C94.9796 138.247 94.3495 138.367 93.6895 138.367ZM104.064 138.367C103.089 138.367 102.204 138.142 101.409 137.692C100.614 137.227 99.9834 136.567 99.5184 135.712C99.0533 134.856 98.8208 133.836 98.8208 132.651C98.8208 131.451 99.0533 130.423 99.5184 129.568C99.9984 128.713 100.614 128.053 101.364 127.588C102.114 127.123 102.901 126.891 103.726 126.891C105.121 126.891 106.194 127.356 106.944 128.286C107.709 129.216 108.092 130.461 108.092 132.021C108.092 132.216 108.084 132.411 108.069 132.606C108.069 132.786 108.054 132.944 108.024 133.079H100.644C100.719 134.234 101.079 135.156 101.724 135.847C102.384 136.537 103.239 136.882 104.289 136.882C104.814 136.882 105.294 136.807 105.729 136.657C106.179 136.492 106.607 136.282 107.012 136.027L107.664 137.242C107.199 137.542 106.667 137.804 106.067 138.029C105.482 138.254 104.814 138.367 104.064 138.367ZM100.621 131.751H106.472C106.472 130.641 106.232 129.801 105.752 129.231C105.287 128.646 104.626 128.353 103.771 128.353C103.006 128.353 102.316 128.653 101.701 129.253C101.101 129.838 100.741 130.671 100.621 131.751ZM43.6389 151.838L42.9413 154.089H47.3743L46.6767 151.838C46.4067 151.013 46.1517 150.196 45.9116 149.386C45.6716 148.561 45.4316 147.72 45.1916 146.865H45.1015C44.8765 147.72 44.644 148.561 44.404 149.386C44.1639 150.196 43.9089 151.013 43.6389 151.838ZM39.1384 160.097L44.1339 145.335H46.2492L51.2447 160.097H49.242L47.8468 155.596H42.4688L41.0511 160.097H39.1384ZM57.0244 160.367C56.2443 160.367 55.5017 160.224 54.7967 159.939C54.0916 159.639 53.4765 159.279 52.9515 158.859L53.8741 157.622C54.3541 157.997 54.8492 158.312 55.3592 158.567C55.8693 158.807 56.4468 158.927 57.0919 158.927C57.812 158.927 58.352 158.762 58.7121 158.432C59.0721 158.087 59.2521 157.682 59.2521 157.216C59.2521 156.841 59.1246 156.526 58.8696 156.271C58.6296 156.016 58.3145 155.806 57.9245 155.641C57.5494 155.461 57.1594 155.296 56.7544 155.146C56.2443 154.951 55.7418 154.734 55.2467 154.494C54.7517 154.239 54.3466 153.916 54.0316 153.526C53.7165 153.121 53.559 152.611 53.559 151.996C53.559 151.111 53.8891 150.376 54.5491 149.791C55.2242 149.191 56.1543 148.891 57.3394 148.891C58.0145 148.891 58.6446 149.011 59.2296 149.251C59.8147 149.491 60.3172 149.783 60.7373 150.128L59.8372 151.298C59.4622 151.013 59.0721 150.781 58.6671 150.601C58.262 150.421 57.8195 150.331 57.3394 150.331C56.6494 150.331 56.1393 150.488 55.8093 150.803C55.4942 151.118 55.3367 151.486 55.3367 151.906C55.3367 152.251 55.4492 152.536 55.6742 152.761C55.8993 152.971 56.1918 153.159 56.5518 153.324C56.9119 153.474 57.2944 153.631 57.6995 153.796C58.2245 153.991 58.7421 154.216 59.2521 154.471C59.7622 154.711 60.1822 155.041 60.5123 155.461C60.8573 155.866 61.0298 156.414 61.0298 157.104C61.0298 157.689 60.8723 158.229 60.5573 158.724C60.2572 159.219 59.8072 159.617 59.2071 159.917C58.6221 160.217 57.8945 160.367 57.0244 160.367ZM66.9347 160.367C66.1546 160.367 65.412 160.224 64.7069 159.939C64.0019 159.639 63.3868 159.279 62.8617 158.859L63.7843 157.622C64.2644 157.997 64.7595 158.312 65.2695 158.567C65.7796 158.807 66.3571 158.927 67.0022 158.927C67.7223 158.927 68.2623 158.762 68.6224 158.432C68.9824 158.087 69.1624 157.682 69.1624 157.216C69.1624 156.841 69.0349 156.526 68.7799 156.271C68.5399 156.016 68.2248 155.806 67.8348 155.641C67.4597 155.461 67.0697 155.296 66.6647 155.146C66.1546 154.951 65.652 154.734 65.157 154.494C64.6619 154.239 64.2569 153.916 63.9419 153.526C63.6268 153.121 63.4693 152.611 63.4693 151.996C63.4693 151.111 63.7993 150.376 64.4594 149.791C65.1345 149.191 66.0646 148.891 67.2497 148.891C67.9248 148.891 68.5549 149.011 69.1399 149.251C69.725 149.491 70.2275 149.783 70.6476 150.128L69.7475 151.298C69.3724 151.013 68.9824 150.781 68.5774 150.601C68.1723 150.421 67.7298 150.331 67.2497 150.331C66.5596 150.331 66.0496 150.488 65.7196 150.803C65.4045 151.118 65.247 151.486 65.247 151.906C65.247 152.251 65.3595 152.536 65.5845 152.761C65.8096 152.971 66.1021 153.159 66.4621 153.324C66.8222 153.474 67.2047 153.631 67.6098 153.796C68.1348 153.991 68.6524 154.216 69.1624 154.471C69.6725 154.711 70.0925 155.041 70.4226 155.461C70.7676 155.866 70.9401 156.414 70.9401 157.104C70.9401 157.689 70.7826 158.229 70.4676 158.724C70.1675 159.219 69.7175 159.617 69.1174 159.917C68.5324 160.217 67.8048 160.367 66.9347 160.367ZM73.9872 160.097V149.161H75.8324V160.097H73.9872ZM74.9323 146.91C74.5722 146.91 74.2722 146.805 74.0322 146.595C73.8071 146.37 73.6946 146.07 73.6946 145.695C73.6946 145.335 73.8071 145.043 74.0322 144.818C74.2722 144.593 74.5722 144.48 74.9323 144.48C75.2923 144.48 75.5848 144.593 75.8099 144.818C76.0499 145.043 76.1699 145.335 76.1699 145.695C76.1699 146.07 76.0499 146.37 75.8099 146.595C75.5848 146.805 75.2923 146.91 74.9323 146.91ZM82.8657 160.367C82.0856 160.367 81.343 160.224 80.6379 159.939C79.9329 159.639 79.3178 159.279 78.7927 158.859L79.7153 157.622C80.1954 157.997 80.6905 158.312 81.2005 158.567C81.7106 158.807 82.2881 158.927 82.9332 158.927C83.6533 158.927 84.1933 158.762 84.5534 158.432C84.9134 158.087 85.0934 157.682 85.0934 157.216C85.0934 156.841 84.9659 156.526 84.7109 156.271C84.4709 156.016 84.1558 155.806 83.7658 155.641C83.3907 155.461 83.0007 155.296 82.5957 155.146C82.0856 154.951 81.583 154.734 81.088 154.494C80.5929 154.239 80.1879 153.916 79.8729 153.526C79.5578 153.121 79.4003 152.611 79.4003 151.996C79.4003 151.111 79.7303 150.376 80.3904 149.791C81.0655 149.191 81.9956 148.891 83.1807 148.891C83.8558 148.891 84.4859 149.011 85.0709 149.251C85.656 149.491 86.1585 149.783 86.5786 150.128L85.6785 151.298C85.3034 151.013 84.9134 150.781 84.5084 150.601C84.1033 150.421 83.6608 150.331 83.1807 150.331C82.4906 150.331 81.9806 150.488 81.6506 150.803C81.3355 151.118 81.178 151.486 81.178 151.906C81.178 152.251 81.2905 152.536 81.5155 152.761C81.7406 152.971 82.0331 153.159 82.3931 153.324C82.7532 153.474 83.1357 153.631 83.5408 153.796C84.0658 153.991 84.5834 154.216 85.0934 154.471C85.6035 154.711 86.0235 155.041 86.3536 155.461C86.6986 155.866 86.8711 156.414 86.8711 157.104C86.8711 157.689 86.7136 158.229 86.3986 158.724C86.0985 159.219 85.6485 159.617 85.0484 159.917C84.4634 160.217 83.7358 160.367 82.8657 160.367ZM92.9215 160.367C91.7514 160.367 90.9338 160.029 90.4688 159.354C90.0187 158.679 89.7937 157.802 89.7937 156.721V150.668H88.1735V149.273L89.8837 149.161L90.1087 146.1H91.6614V149.161H94.6092V150.668H91.6614V156.744C91.6614 157.419 91.7814 157.944 92.0214 158.319C92.2765 158.679 92.719 158.859 93.3491 158.859C93.5441 158.859 93.7541 158.829 93.9791 158.769C94.2042 158.694 94.4067 158.627 94.5867 158.567L94.9467 159.962C94.6467 160.067 94.3167 160.157 93.9566 160.232C93.6116 160.322 93.2666 160.367 92.9215 160.367ZM99.6018 160.367C98.6867 160.367 97.9217 160.097 97.3066 159.557C96.7065 159.002 96.4065 158.237 96.4065 157.261C96.4065 156.061 96.9391 155.146 98.0042 154.516C99.0843 153.871 100.787 153.421 103.112 153.166C103.112 152.701 103.045 152.258 102.91 151.838C102.79 151.418 102.565 151.081 102.235 150.826C101.92 150.556 101.462 150.421 100.862 150.421C100.232 150.421 99.6394 150.541 99.0843 150.781C98.5292 151.021 98.0342 151.291 97.5991 151.591L96.8791 150.308C97.3891 149.978 98.0117 149.663 98.7468 149.363C99.4968 149.048 100.307 148.891 101.177 148.891C102.512 148.891 103.48 149.303 104.08 150.128C104.68 150.938 104.98 152.026 104.98 153.391V160.097H103.45L103.292 158.792H103.225C102.715 159.212 102.152 159.579 101.537 159.894C100.937 160.209 100.292 160.367 99.6018 160.367ZM100.142 158.882C100.667 158.882 101.162 158.754 101.627 158.499C102.092 158.244 102.587 157.884 103.112 157.419V154.381C101.297 154.606 100.022 154.944 99.2868 155.394C98.5667 155.844 98.2067 156.421 98.2067 157.126C98.2067 157.742 98.3942 158.192 98.7693 158.477C99.1443 158.747 99.6018 158.882 100.142 158.882ZM108.904 160.097V149.161H110.434L110.591 150.736H110.659C111.184 150.211 111.739 149.776 112.324 149.431C112.909 149.071 113.577 148.891 114.327 148.891C115.482 148.891 116.322 149.258 116.847 149.993C117.387 150.713 117.657 151.771 117.657 153.166V160.097H115.812V153.414C115.812 152.393 115.647 151.651 115.317 151.186C114.987 150.721 114.462 150.488 113.742 150.488C113.187 150.488 112.684 150.631 112.234 150.916C111.799 151.201 111.304 151.621 110.749 152.176V160.097H108.904ZM125.136 160.367C123.965 160.367 123.148 160.029 122.683 159.354C122.233 158.679 122.008 157.802 122.008 156.721V150.668H120.388V149.273L122.098 149.161L122.323 146.1H123.875V149.161H126.823V150.668H123.875V156.744C123.875 157.419 123.995 157.944 124.235 158.319C124.49 158.679 124.933 158.859 125.563 158.859C125.758 158.859 125.968 158.829 126.193 158.769C126.418 158.694 126.621 158.627 126.801 158.567L127.161 159.962C126.861 160.067 126.531 160.157 126.171 160.232C125.826 160.322 125.481 160.367 125.136 160.367Z" fill="#57AC49"/>
<path d="M115.42 22.5242H50.1651C46.5062 22.5242 42.9975 23.9803 40.4114 26.5714C37.8259 29.1629 36.3756 32.6767 36.3809 36.3395V72.6838C36.3738 76.348 37.8222 79.8643 40.4082 82.4572C42.9944 85.0507 46.5042 86.5082 50.1651 86.5082H54.9455V98.5861C54.9455 102.163 56.2819 104.095 58.315 104.095C59.54 104.095 61.0065 103.399 62.5941 101.931L79.2459 86.5082H115.447C119.103 86.5011 122.606 85.0403 125.186 82.4474C127.765 79.8552 129.21 76.3427 129.203 72.6837V36.3394C129.208 32.6766 127.758 29.1628 125.173 26.5712C122.587 23.9803 119.078 22.524 115.419 22.524L115.42 22.5242ZM123.634 72.6931C123.637 74.8764 122.773 76.9709 121.232 78.5167C119.692 80.0623 117.601 80.932 115.42 80.9339H77.0657L75.469 82.4205L60.5154 96.2078V80.9338H50.1655C47.9828 80.9319 45.8901 80.0609 44.3498 78.5133C42.8088 76.9658 41.9457 74.8686 41.9508 72.684V36.3397C41.9527 34.1596 42.8191 32.0697 44.3594 30.528C45.8991 28.9869 47.9873 28.1197 50.1653 28.1172H115.42C117.598 28.1198 119.686 28.9869 121.226 30.528C122.766 32.0697 123.633 34.1597 123.634 36.3397L123.634 72.6931Z" fill="#F5C46A"/>
<rect x="2.15835" y="1.42801" width="161.267" height="178.144" rx="24.8464" stroke="#57AC49" stroke-width="2.8128"/>
</svg>
