<svg width="165" height="181" viewBox="0 0 165 181" fill="none" xmlns="http://www.w3.org/2000/svg">
<path d="M105.463 43.1826C109.057 36.9575 109.038 29.2662 105.42 23.0885L105.169 22.4489L104.544 22.4593C97.3846 22.4141 90.6599 26.3366 87.1198 32.4683C83.6332 38.5073 83.5733 45.9061 86.7671 51.9618L57.3173 102.97L59.3613 104.151L88.7575 53.2348C95.6521 52.8791 102.03 49.1284 105.463 43.182L105.463 43.1826ZM88.1618 49.5464C86.015 44.4669 86.3209 38.5728 89.1639 33.6486C91.9534 28.817 96.9045 25.6058 102.431 24.8319L88.1618 49.5464Z" fill="#F5C46A"/>
<path d="M72.4414 32.7885C70.9546 31.9301 69.2679 31.2043 67.5667 30.7172L66.9953 30.6353L66.4875 31.0853C61.4215 36.2124 59.3921 43.5888 61.331 50.531C62.6514 55.7531 65.9455 60.1324 70.5911 62.8145C72.0779 63.6729 73.7646 64.3987 75.4658 64.8857L76.1305 65.0215L76.6384 64.5715C81.7044 59.4445 83.7337 52.068 81.7948 45.1259C80.4744 39.9038 77.087 35.4706 72.4414 32.7885ZM71.7712 60.7706C67.6829 58.4102 64.6926 54.5779 63.4752 50.0348C62.0224 44.6126 63.286 38.7766 66.7256 34.3201L74.1082 61.8724C73.404 61.5894 72.5145 61.1994 71.7712 60.7702L71.7712 60.7706Z" fill="#F5C46A"/>
<path d="M83.1014 68.1799L82.9656 68.8447L83.4156 69.3525C84.6879 70.5822 86.0673 71.6266 87.6467 72.5384C92.2923 75.2206 97.6784 75.9763 102.954 74.5626C109.842 72.7169 115.363 67.2324 117.217 60.3741L117.166 59.6016L116.716 59.0938C115.443 57.8641 114.064 56.8197 112.485 55.9078C107.839 53.2257 102.453 52.47 97.1769 53.8837C90.3825 55.7825 84.8618 61.2678 83.1014 68.1799ZM111.398 58.0061C112.049 58.3818 112.738 58.9032 113.335 59.3722L86.0755 66.6763C88.1605 61.5623 92.5301 57.643 97.8987 56.2828C102.442 55.0655 107.217 55.5927 111.398 58.0066L111.398 58.0061Z" fill="#F5C46A"/>
<path d="M58.6001 56.7599C57.1133 55.9015 55.4266 55.1757 53.7254 54.6886L53.1543 54.6061L52.6465 55.0561C47.5805 60.1831 45.5512 67.5596 47.4901 74.5017C48.8646 79.6316 52.1587 84.0109 56.8969 86.7465C58.3836 87.6049 60.0704 88.3307 61.7715 88.8177L62.4363 88.9535L62.9441 88.5035C68.0101 83.3765 70.0395 76 68.1006 69.0579C66.6869 63.7819 63.2457 59.442 58.6001 56.7599ZM57.9835 84.6491C53.8952 82.2887 50.905 78.4564 49.6876 73.9133C48.2347 68.491 49.4983 62.6551 52.938 58.1986L60.3206 85.7509C59.6168 85.4672 58.7268 85.0779 57.9835 84.6487L57.9835 84.6491Z" fill="#F5C46A"/>
<path d="M103.327 83.5736L102.877 83.0658C101.605 81.836 100.226 80.7916 98.6462 79.8798C94.0006 77.1977 88.6144 76.4419 83.3385 77.8556C76.4504 79.7013 70.9299 85.1858 69.0763 92.0441L68.9405 92.7089L69.3905 93.2167C70.6628 94.4464 72.0422 95.4908 73.6215 96.4026C78.2671 99.0848 83.6533 99.8405 88.9293 98.4268C95.8173 96.5811 101.338 91.0966 103.191 84.2383L103.327 83.5736ZM72.2903 90.5547C74.3752 85.4407 78.7448 81.5214 84.1135 80.1612C88.6564 78.9439 93.4706 79.6174 97.5589 81.9778C98.2096 82.3535 98.8988 82.875 99.4956 83.3439L72.2903 90.5547Z" fill="#F5C46A"/>
<path d="M37.9992 137.159V122.398H46.5051V123.973H39.8669V128.968H45.4925V130.543H39.8669V137.159H37.9992ZM49.4216 137.159V126.223H51.2668V137.159H49.4216ZM50.3667 123.973C50.0066 123.973 49.7066 123.868 49.4666 123.658C49.2415 123.433 49.129 123.133 49.129 122.758C49.129 122.398 49.2415 122.105 49.4666 121.88C49.7066 121.655 50.0066 121.543 50.3667 121.543C50.7267 121.543 51.0192 121.655 51.2443 121.88C51.4843 122.105 51.6043 122.398 51.6043 122.758C51.6043 123.133 51.4843 123.433 51.2443 123.658C51.0192 123.868 50.7267 123.973 50.3667 123.973ZM55.4423 137.159V126.223H56.9724L57.13 127.798H57.1975C57.7225 127.273 58.2776 126.838 58.8626 126.493C59.4477 126.133 60.1153 125.953 60.8653 125.953C62.0205 125.953 62.8606 126.321 63.3856 127.056C63.9257 127.776 64.1957 128.833 64.1957 130.228V137.159H62.3505V130.476C62.3505 129.456 62.1855 128.713 61.8555 128.248C61.5254 127.783 61.0004 127.551 60.2803 127.551C59.7252 127.551 59.2227 127.693 58.7726 127.978C58.3376 128.263 57.8425 128.683 57.2875 129.238V137.159H55.4423ZM71.9667 137.429C70.6015 137.429 69.5064 136.934 68.6813 135.944C67.8562 134.939 67.4437 133.529 67.4437 131.714C67.4437 130.528 67.6612 129.508 68.0963 128.653C68.5463 127.783 69.1314 127.116 69.8515 126.651C70.5865 126.186 71.3666 125.953 72.1917 125.953C72.8218 125.953 73.3693 126.066 73.8344 126.291C74.2994 126.516 74.772 126.823 75.252 127.213L75.162 125.345V121.137H77.0297V137.159H75.4996L75.342 135.877H75.2745C74.8545 136.297 74.3594 136.664 73.7894 136.979C73.2193 137.279 72.6118 137.429 71.9667 137.429ZM72.3717 135.877C73.3318 135.877 74.2619 135.374 75.162 134.369V128.653C74.697 128.233 74.2469 127.941 73.8119 127.776C73.3918 127.596 72.9568 127.506 72.5067 127.506C71.9217 127.506 71.3891 127.686 70.9091 128.046C70.444 128.391 70.069 128.878 69.7839 129.508C69.4989 130.123 69.3564 130.851 69.3564 131.691C69.3564 132.996 69.6189 134.024 70.144 134.774C70.669 135.509 71.4116 135.877 72.3717 135.877ZM86.364 141.862C86.124 141.862 85.8915 141.84 85.6664 141.795C85.4564 141.75 85.2614 141.697 85.0814 141.637L85.4414 140.175C85.5614 140.205 85.6964 140.235 85.8465 140.265C85.9965 140.31 86.139 140.332 86.274 140.332C86.8891 140.332 87.3991 140.107 87.8042 139.657C88.2092 139.222 88.5242 138.667 88.7493 137.992L88.9968 137.182L84.6088 126.223H86.5215L88.7493 132.276C88.9143 132.741 89.0868 133.244 89.2668 133.784C89.4618 134.324 89.6419 134.849 89.8069 135.359H89.8969C90.0619 134.864 90.2194 134.346 90.3694 133.806C90.5195 133.266 90.6695 132.756 90.8195 132.276L92.7772 126.223H94.5774L90.4594 138.059C90.2044 138.779 89.8969 139.424 89.5368 139.995C89.1918 140.565 88.7568 141.015 88.2317 141.345C87.7217 141.69 87.0991 141.862 86.364 141.862ZM101.336 137.429C100.451 137.429 99.6184 137.204 98.8383 136.754C98.0733 136.304 97.4507 135.652 96.9706 134.796C96.5056 133.941 96.2731 132.914 96.2731 131.714C96.2731 130.483 96.5056 129.441 96.9706 128.586C97.4507 127.731 98.0733 127.078 98.8383 126.628C99.6184 126.178 100.451 125.953 101.336 125.953C102.236 125.953 103.069 126.178 103.834 126.628C104.599 127.078 105.214 127.731 105.679 128.586C106.159 129.441 106.399 130.483 106.399 131.714C106.399 132.914 106.159 133.941 105.679 134.796C105.214 135.652 104.599 136.304 103.834 136.754C103.069 137.204 102.236 137.429 101.336 137.429ZM101.336 135.899C102.281 135.899 103.039 135.517 103.609 134.751C104.194 133.971 104.486 132.959 104.486 131.714C104.486 130.453 104.194 129.433 103.609 128.653C103.039 127.873 102.281 127.483 101.336 127.483C100.406 127.483 99.6484 127.873 99.0634 128.653C98.4783 129.433 98.1858 130.453 98.1858 131.714C98.1858 132.959 98.4783 133.971 99.0634 134.751C99.6484 135.517 100.406 135.899 101.336 135.899ZM112.958 137.429C111.803 137.429 110.955 137.069 110.415 136.349C109.875 135.614 109.605 134.549 109.605 133.154V126.223H111.472V132.906C111.472 133.926 111.63 134.669 111.945 135.134C112.275 135.599 112.8 135.832 113.52 135.832C114.09 135.832 114.593 135.689 115.028 135.404C115.478 135.104 115.958 134.631 116.468 133.986V126.223H118.313V137.159H116.783L116.626 135.449H116.558C116.048 136.049 115.508 136.529 114.938 136.889C114.368 137.249 113.708 137.429 112.958 137.429ZM122.485 137.159V126.223H124.016L124.173 128.203H124.241C124.616 127.513 125.073 126.966 125.613 126.561C126.153 126.156 126.731 125.953 127.346 125.953C127.781 125.953 128.171 126.028 128.516 126.178L128.156 127.798C127.976 127.738 127.811 127.693 127.661 127.663C127.511 127.633 127.323 127.618 127.098 127.618C126.633 127.618 126.146 127.806 125.636 128.181C125.141 128.556 124.706 129.208 124.331 130.138V137.159H122.485ZM66.7731 159.429C65.543 159.429 64.4404 159.129 63.4653 158.529C62.5052 157.914 61.7401 157.036 61.17 155.896C60.615 154.756 60.3374 153.384 60.3374 151.778C60.3374 150.188 60.6225 148.823 61.1925 147.683C61.7626 146.543 62.5427 145.665 63.5328 145.05C64.5229 144.435 65.6405 144.128 66.8856 144.128C67.7857 144.128 68.5808 144.315 69.2709 144.69C69.961 145.05 70.516 145.47 70.9361 145.95L69.9234 147.165C69.5334 146.745 69.0909 146.408 68.5958 146.153C68.1008 145.898 67.5382 145.77 66.9081 145.77C65.978 145.77 65.1604 146.018 64.4554 146.513C63.7653 146.993 63.2252 147.675 62.8352 148.561C62.4602 149.446 62.2726 150.503 62.2726 151.733C62.2726 152.964 62.4602 154.036 62.8352 154.951C63.2102 155.851 63.7353 156.549 64.4104 157.044C65.1004 157.539 65.9105 157.787 66.8406 157.787C67.5457 157.787 68.1758 157.637 68.7308 157.337C69.2859 157.036 69.7959 156.631 70.261 156.121L71.2961 157.292C70.711 157.967 70.051 158.492 69.3159 158.867C68.5808 159.242 67.7332 159.429 66.7731 159.429ZM74.3509 159.159V148.223H75.881L76.0386 150.203H76.1061C76.4811 149.513 76.9387 148.966 77.4787 148.561C78.0188 148.156 78.5963 147.953 79.2114 147.953C79.6464 147.953 80.0365 148.028 80.3815 148.178L80.0215 149.798C79.8415 149.738 79.6765 149.693 79.5264 149.663C79.3764 149.633 79.1889 149.618 78.9639 149.618C78.4988 149.618 78.0113 149.806 77.5012 150.181C77.0062 150.556 76.5711 151.208 76.1961 152.138V159.159H74.3509ZM86.6682 159.429C85.7831 159.429 84.9505 159.204 84.1705 158.754C83.4054 158.304 82.7828 157.652 82.3028 156.796C81.8377 155.941 81.6052 154.914 81.6052 153.714C81.6052 152.483 81.8377 151.441 82.3028 150.586C82.7828 149.731 83.4054 149.078 84.1705 148.628C84.9505 148.178 85.7831 147.953 86.6682 147.953C87.5683 147.953 88.4009 148.178 89.166 148.628C89.9311 149.078 90.5461 149.731 91.0112 150.586C91.4912 151.441 91.7313 152.483 91.7313 153.714C91.7313 154.914 91.4912 155.941 91.0112 156.796C90.5461 157.652 89.9311 158.304 89.166 158.754C88.4009 159.204 87.5683 159.429 86.6682 159.429ZM86.6682 157.899C87.6133 157.899 88.3709 157.517 88.941 156.751C89.526 155.971 89.8186 154.959 89.8186 153.714C89.8186 152.453 89.526 151.433 88.941 150.653C88.3709 149.873 87.6133 149.483 86.6682 149.483C85.7381 149.483 84.9805 149.873 84.3955 150.653C83.8104 151.433 83.5179 152.453 83.5179 153.714C83.5179 154.959 83.8104 155.971 84.3955 156.751C84.9805 157.517 85.7381 157.899 86.6682 157.899ZM95.0944 163.772V148.223H96.6246L96.7821 149.483H96.8496C97.3447 149.063 97.8847 148.703 98.4698 148.403C99.0698 148.103 99.6924 147.953 100.337 147.953C101.748 147.953 102.82 148.463 103.555 149.483C104.29 150.488 104.658 151.838 104.658 153.534C104.658 154.764 104.433 155.821 103.983 156.706C103.548 157.592 102.97 158.267 102.25 158.732C101.545 159.197 100.773 159.429 99.9324 159.429C99.4224 159.429 98.9123 159.317 98.4023 159.092C97.9072 158.867 97.4047 158.559 96.8946 158.169L96.9396 160.082V163.772H95.0944ZM99.6174 157.877C100.517 157.877 101.26 157.494 101.845 156.729C102.445 155.949 102.745 154.884 102.745 153.534C102.745 152.333 102.52 151.366 102.07 150.631C101.635 149.881 100.9 149.506 99.8649 149.506C99.3999 149.506 98.9273 149.633 98.4473 149.888C97.9822 150.143 97.4797 150.511 96.9396 150.991V156.729C97.4347 157.149 97.9147 157.449 98.3798 157.629C98.8448 157.794 99.2574 157.877 99.6174 157.877Z" fill="#57AC49"/>
<rect x="1.4064" y="1.42801" width="161.267" height="178.144" rx="24.8464" stroke="#57AC49" stroke-width="2.8128"/>
</svg>
