<svg width="165" height="181" viewBox="0 0 165 181" fill="none" xmlns="http://www.w3.org/2000/svg">
<g clip-path="url(#clip0_22_1127)">
<path d="M82.8448 25.4551L81.1006 28.0713C77.1485 34.0088 70.0791 37.0703 63.0469 35.8828L51.9883 34.0459C45.1788 32.9141 38.9815 38.165 39 45.0674C39 48.0176 40.1875 50.8564 42.2657 52.9531L47.6836 58.3711C49.7246 60.4121 50.875 63.1767 50.875 66.0713C50.875 69.0029 49.6875 71.8047 47.5909 73.8642L45.1602 76.2392C43.1006 78.2432 41.9502 80.9892 41.9502 83.8652C41.9502 90.6933 48.2774 95.7773 54.9571 94.293L66.5166 91.7324C67.9453 91.417 69.4297 91.25 70.8955 91.25H72.751C77.7979 91.25 82.7149 92.9756 86.667 96.1299L92.3819 100.713C94.3301 102.271 96.7608 103.125 99.2471 103.125C105.314 103.125 110.25 98.208 110.25 92.1221V87.4463C110.25 80.9707 114.221 75.1631 120.251 72.8252L127.098 70.1719C131.254 68.5576 134 64.5498 134 60.0967C134 54.8828 130.271 50.3926 125.131 49.4648L119.936 48.5185C113.163 47.2754 107.801 42.1172 106.279 35.4004L104.962 29.5557C103.719 23.9707 98.7461 20 93.0313 20C88.9492 20 85.127 22.041 82.8633 25.4551H82.8448ZM68.669 49.6875C70.2437 49.6875 71.7539 50.313 72.8674 51.4265C73.9809 52.54 74.6065 54.0503 74.6065 55.625C74.6065 57.1997 73.9809 58.7099 72.8674 59.8234C71.7539 60.9369 70.2437 61.5625 68.669 61.5625C67.0943 61.5625 65.584 60.9369 64.4705 59.8234C63.357 58.7099 62.7315 57.1997 62.7315 55.625C62.7315 54.0503 63.357 52.54 64.4705 51.4265C65.584 50.313 67.0943 49.6875 68.669 49.6875ZM92.419 52.6562C92.419 51.8689 92.7317 51.1138 93.2885 50.557C93.8452 50.0003 94.6004 49.6875 95.3877 49.6875C96.1751 49.6875 96.9302 50.0003 97.4869 50.557C98.0437 51.1138 98.3565 51.8689 98.3565 52.6562C98.3565 53.4436 98.0437 54.1987 97.4869 54.7555C96.9302 55.3122 96.1751 55.625 95.3877 55.625C94.6004 55.625 93.8452 55.3122 93.2885 54.7555C92.7317 54.1987 92.419 53.4436 92.419 52.6562ZM92.419 67.5C93.9937 67.5 95.5039 68.1255 96.6174 69.239C97.7309 70.3525 98.3565 71.8628 98.3565 73.4375C98.3565 75.0122 97.7309 76.5224 96.6174 77.6359C95.5039 78.7494 93.9937 79.375 92.419 79.375C90.8442 79.375 89.334 78.7494 88.2205 77.6359C87.107 76.5224 86.4815 75.0122 86.4815 73.4375C86.4815 71.8628 87.107 70.3525 88.2205 69.239C89.334 68.1255 90.8442 67.5 92.419 67.5Z" fill="#F5C46A"/>
<path d="M47.2143 138.097V123.335H50.9047C53.185 123.335 54.9176 123.973 56.1028 125.248C57.2879 126.508 57.8805 128.308 57.8805 130.649C57.8805 133.004 57.2879 134.834 56.1028 136.139C54.9326 137.444 53.23 138.097 50.9947 138.097H47.2143ZM49.082 136.567H50.7697C52.4949 136.567 53.785 136.049 54.6401 135.014C55.5102 133.964 55.9453 132.509 55.9453 130.649C55.9453 128.788 55.5102 127.363 54.6401 126.373C53.785 125.368 52.4949 124.865 50.7697 124.865H49.082V136.567ZM61.3616 138.097V127.161H63.2068V138.097H61.3616ZM62.3067 124.91C61.9466 124.91 61.6466 124.805 61.4066 124.595C61.1815 124.37 61.069 124.07 61.069 123.695C61.069 123.335 61.1815 123.043 61.4066 122.818C61.6466 122.593 61.9466 122.48 62.3067 122.48C62.6667 122.48 62.9592 122.593 63.1843 122.818C63.4243 123.043 63.5443 123.335 63.5443 123.695C63.5443 124.07 63.4243 124.37 63.1843 124.595C62.9592 124.805 62.6667 124.91 62.3067 124.91ZM70.2401 138.367C69.46 138.367 68.7174 138.224 68.0123 137.939C67.3073 137.639 66.6922 137.279 66.1671 136.859L67.0897 135.622C67.5698 135.997 68.0649 136.312 68.5749 136.567C69.085 136.807 69.6625 136.927 70.3076 136.927C71.0277 136.927 71.5677 136.762 71.9278 136.432C72.2878 136.087 72.4678 135.682 72.4678 135.216C72.4678 134.841 72.3403 134.526 72.0853 134.271C71.8453 134.016 71.5302 133.806 71.1402 133.641C70.7651 133.461 70.3751 133.296 69.9701 133.146C69.46 132.951 68.9574 132.734 68.4624 132.494C67.9673 132.239 67.5623 131.916 67.2473 131.526C66.9322 131.121 66.7747 130.611 66.7747 129.996C66.7747 129.111 67.1047 128.376 67.7648 127.791C68.4399 127.191 69.37 126.891 70.5551 126.891C71.2302 126.891 71.8603 127.011 72.4453 127.251C73.0304 127.491 73.5329 127.783 73.953 128.128L73.0529 129.298C72.6778 129.013 72.2878 128.781 71.8828 128.601C71.4777 128.421 71.0352 128.331 70.5551 128.331C69.865 128.331 69.355 128.488 69.025 128.803C68.7099 129.118 68.5524 129.486 68.5524 129.906C68.5524 130.251 68.6649 130.536 68.8899 130.761C69.115 130.971 69.4075 131.159 69.7675 131.324C70.1276 131.474 70.5101 131.631 70.9152 131.796C71.4402 131.991 71.9578 132.216 72.4678 132.471C72.9779 132.711 73.3979 133.041 73.728 133.461C74.073 133.866 74.2455 134.414 74.2455 135.104C74.2455 135.689 74.088 136.229 73.773 136.724C73.4729 137.219 73.0229 137.617 72.4228 137.917C71.8378 138.217 71.1102 138.367 70.2401 138.367ZM81.7255 138.367C80.7504 138.367 79.8653 138.142 79.0703 137.692C78.2752 137.227 77.6451 136.567 77.1801 135.712C76.715 134.856 76.4825 133.836 76.4825 132.651C76.4825 131.451 76.715 130.423 77.1801 129.568C77.6601 128.713 78.2752 128.053 79.0253 127.588C79.7753 127.123 80.5629 126.891 81.388 126.891C82.7832 126.891 83.8558 127.356 84.6058 128.286C85.3709 129.216 85.7535 130.461 85.7535 132.021C85.7535 132.216 85.746 132.411 85.731 132.606C85.731 132.786 85.716 132.944 85.686 133.079H78.3052C78.3802 134.234 78.7402 135.156 79.3853 135.847C80.0454 136.537 80.9005 136.882 81.9506 136.882C82.4756 136.882 82.9557 136.807 83.3907 136.657C83.8408 136.492 84.2683 136.282 84.6734 136.027L85.3259 137.242C84.8609 137.542 84.3283 137.804 83.7283 138.029C83.1432 138.254 82.4756 138.367 81.7255 138.367ZM78.2827 131.751H84.1333C84.1333 130.641 83.8933 129.801 83.4132 129.231C82.9482 128.646 82.2881 128.353 81.433 128.353C80.6679 128.353 79.9779 128.653 79.3628 129.253C78.7627 129.838 78.4027 130.671 78.2827 131.751ZM91.1515 138.367C90.2364 138.367 89.4713 138.097 88.8563 137.557C88.2562 137.002 87.9562 136.237 87.9562 135.261C87.9562 134.061 88.4887 133.146 89.5538 132.516C90.6339 131.871 92.3366 131.421 94.6619 131.166C94.6619 130.701 94.5944 130.258 94.4594 129.838C94.3393 129.418 94.1143 129.081 93.7843 128.826C93.4692 128.556 93.0117 128.421 92.4116 128.421C91.7816 128.421 91.189 128.541 90.6339 128.781C90.0789 129.021 89.5838 129.291 89.1488 129.591L88.4287 128.308C88.9388 127.978 89.5613 127.663 90.2964 127.363C91.0465 127.048 91.8566 126.891 92.7267 126.891C94.0618 126.891 95.0294 127.303 95.6295 128.128C96.2295 128.938 96.5296 130.026 96.5296 131.391V138.097H94.9994L94.8419 136.792H94.7744C94.2643 137.212 93.7018 137.579 93.0867 137.894C92.4866 138.209 91.8416 138.367 91.1515 138.367ZM91.6916 136.882C92.2166 136.882 92.7117 136.754 93.1767 136.499C93.6418 136.244 94.1368 135.884 94.6619 135.419V132.381C92.8467 132.606 91.5715 132.944 90.8365 133.394C90.1164 133.844 89.7564 134.421 89.7564 135.126C89.7564 135.742 89.9439 136.192 90.3189 136.477C90.694 136.747 91.1515 136.882 91.6916 136.882ZM103.311 138.367C102.531 138.367 101.788 138.224 101.083 137.939C100.378 137.639 99.7633 137.279 99.2382 136.859L100.161 135.622C100.641 135.997 101.136 136.312 101.646 136.567C102.156 136.807 102.734 136.927 103.379 136.927C104.099 136.927 104.639 136.762 104.999 136.432C105.359 136.087 105.539 135.682 105.539 135.216C105.539 134.841 105.411 134.526 105.156 134.271C104.916 134.016 104.601 133.806 104.211 133.641C103.836 133.461 103.446 133.296 103.041 133.146C102.531 132.951 102.029 132.734 101.533 132.494C101.038 132.239 100.633 131.916 100.318 131.526C100.003 131.121 99.8458 130.611 99.8458 129.996C99.8458 129.111 100.176 128.376 100.836 127.791C101.511 127.191 102.441 126.891 103.626 126.891C104.301 126.891 104.931 127.011 105.516 127.251C106.101 127.491 106.604 127.783 107.024 128.128L106.124 129.298C105.749 129.013 105.359 128.781 104.954 128.601C104.549 128.421 104.106 128.331 103.626 128.331C102.936 128.331 102.426 128.488 102.096 128.803C101.781 129.118 101.623 129.486 101.623 129.906C101.623 130.251 101.736 130.536 101.961 130.761C102.186 130.971 102.479 131.159 102.839 131.324C103.199 131.474 103.581 131.631 103.986 131.796C104.511 131.991 105.029 132.216 105.539 132.471C106.049 132.711 106.469 133.041 106.799 133.461C107.144 133.866 107.317 134.414 107.317 135.104C107.317 135.689 107.159 136.229 106.844 136.724C106.544 137.219 106.094 137.617 105.494 137.917C104.909 138.217 104.181 138.367 103.311 138.367ZM114.797 138.367C113.821 138.367 112.936 138.142 112.141 137.692C111.346 137.227 110.716 136.567 110.251 135.712C109.786 134.856 109.554 133.836 109.554 132.651C109.554 131.451 109.786 130.423 110.251 129.568C110.731 128.713 111.346 128.053 112.096 127.588C112.846 127.123 113.634 126.891 114.459 126.891C115.854 126.891 116.927 127.356 117.677 128.286C118.442 129.216 118.825 130.461 118.825 132.021C118.825 132.216 118.817 132.411 118.802 132.606C118.802 132.786 118.787 132.944 118.757 133.079H111.376C111.451 134.234 111.811 135.156 112.456 135.847C113.116 136.537 113.972 136.882 115.022 136.882C115.547 136.882 116.027 136.807 116.462 136.657C116.912 136.492 117.339 136.282 117.744 136.027L118.397 137.242C117.932 137.542 117.399 137.804 116.799 138.029C116.214 138.254 115.547 138.367 114.797 138.367ZM111.354 131.751H117.204C117.204 130.641 116.964 129.801 116.484 129.231C116.019 128.646 115.359 128.353 114.504 128.353C113.739 128.353 113.049 128.653 112.434 129.253C111.834 129.838 111.474 130.671 111.354 131.751ZM33.9309 160.097V145.335H38.1388C39.2489 145.335 40.2165 145.47 41.0416 145.74C41.8667 146.01 42.5118 146.468 42.9768 147.113C43.4419 147.743 43.6744 148.598 43.6744 149.678C43.6744 151.223 43.1719 152.371 42.1667 153.121C41.1616 153.871 39.849 154.246 38.2288 154.246H35.7986V160.097H33.9309ZM35.7986 152.716H38.0038C39.2939 152.716 40.2465 152.476 40.8616 151.996C41.4917 151.501 41.8067 150.728 41.8067 149.678C41.8067 148.613 41.4767 147.878 40.8166 147.473C40.1715 147.053 39.2039 146.843 37.9138 146.843H35.7986V152.716ZM46.9794 160.097V149.161H48.5095L48.667 151.141H48.7346C49.1096 150.451 49.5671 149.903 50.1072 149.498C50.6473 149.093 51.2248 148.891 51.8399 148.891C52.2749 148.891 52.665 148.966 53.01 149.116L52.65 150.736C52.4699 150.676 52.3049 150.631 52.1549 150.601C52.0049 150.571 51.8174 150.556 51.5924 150.556C51.1273 150.556 50.6398 150.743 50.1297 151.118C49.6346 151.493 49.1996 152.146 48.8246 153.076V160.097H46.9794ZM59.4767 160.367C58.5016 160.367 57.6165 160.142 56.8214 159.692C56.0264 159.227 55.3963 158.567 54.9312 157.712C54.4662 156.856 54.2337 155.836 54.2337 154.651C54.2337 153.451 54.4662 152.423 54.9312 151.568C55.4113 150.713 56.0264 150.053 56.7764 149.588C57.5265 149.123 58.3141 148.891 59.1392 148.891C60.5343 148.891 61.607 149.356 62.357 150.286C63.1221 151.216 63.5047 152.461 63.5047 154.021C63.5047 154.216 63.4972 154.411 63.4822 154.606C63.4822 154.786 63.4672 154.944 63.4371 155.079H56.0564C56.1314 156.234 56.4914 157.156 57.1365 157.847C57.7965 158.537 58.6516 158.882 59.7017 158.882C60.2268 158.882 60.7069 158.807 61.1419 158.657C61.592 158.492 62.0195 158.282 62.4245 158.027L63.0771 159.242C62.6121 159.542 62.0795 159.804 61.4794 160.029C60.8944 160.254 60.2268 160.367 59.4767 160.367ZM56.0339 153.751H61.8845C61.8845 152.641 61.6445 151.801 61.1644 151.231C60.6994 150.646 60.0393 150.353 59.1842 150.353C58.4191 150.353 57.729 150.653 57.114 151.253C56.5139 151.838 56.1539 152.671 56.0339 153.751ZM70.4255 160.367C69.0603 160.367 67.9652 159.872 67.1401 158.882C66.315 157.877 65.9025 156.466 65.9025 154.651C65.9025 153.466 66.12 152.446 66.5551 151.591C67.0051 150.721 67.5902 150.053 68.3102 149.588C69.0453 149.123 69.8254 148.891 70.6505 148.891C71.2806 148.891 71.8281 149.003 72.2932 149.228C72.7582 149.453 73.2308 149.761 73.7108 150.151L73.6208 148.283V144.075H75.4885V160.097H73.9583L73.8008 158.814H73.7333C73.3133 159.234 72.8182 159.602 72.2482 159.917C71.6781 160.217 71.0705 160.367 70.4255 160.367ZM70.8305 158.814C71.7906 158.814 72.7207 158.312 73.6208 157.307V151.591C73.1558 151.171 72.7057 150.878 72.2707 150.713C71.8506 150.533 71.4156 150.443 70.9655 150.443C70.3805 150.443 69.8479 150.623 69.3679 150.983C68.9028 151.328 68.5278 151.816 68.2427 152.446C67.9577 153.061 67.8152 153.789 67.8152 154.629C67.8152 155.934 68.0777 156.961 68.6028 157.712C69.1278 158.447 69.8704 158.814 70.8305 158.814ZM79.6549 160.097V149.161H81.5001V160.097H79.6549ZM80.6 146.91C80.2399 146.91 79.9399 146.805 79.6999 146.595C79.4749 146.37 79.3623 146.07 79.3623 145.695C79.3623 145.335 79.4749 145.043 79.6999 144.818C79.9399 144.593 80.2399 144.48 80.6 144.48C80.96 144.48 81.2525 144.593 81.4776 144.818C81.7176 145.043 81.8376 145.335 81.8376 145.695C81.8376 146.07 81.7176 146.37 81.4776 146.595C81.2525 146.805 80.96 146.91 80.6 146.91ZM89.9961 160.367C89.036 160.367 88.1659 160.142 87.3858 159.692C86.6057 159.242 85.9906 158.589 85.5406 157.734C85.0905 156.879 84.8655 155.851 84.8655 154.651C84.8655 153.421 85.1055 152.378 85.5856 151.523C86.0806 150.668 86.7257 150.016 87.5208 149.566C88.3309 149.116 89.201 148.891 90.1311 148.891C90.8511 148.891 91.4662 149.018 91.9763 149.273C92.5013 149.528 92.9514 149.828 93.3264 150.173L92.3813 151.388C92.0663 151.103 91.7287 150.871 91.3687 150.691C91.0237 150.511 90.6336 150.421 90.1986 150.421C89.5385 150.421 88.9459 150.601 88.4209 150.961C87.9108 151.306 87.5058 151.801 87.2058 152.446C86.9207 153.076 86.7782 153.811 86.7782 154.651C86.7782 155.896 87.0857 156.909 87.7008 157.689C88.3309 158.454 89.1485 158.837 90.1536 158.837C90.6636 158.837 91.1362 158.732 91.5712 158.522C92.0063 158.297 92.3888 158.034 92.7188 157.734L93.5289 158.972C93.0339 159.407 92.4863 159.752 91.8863 160.007C91.2862 160.247 90.6561 160.367 89.9961 160.367ZM99.6441 160.367C98.4739 160.367 97.6563 160.029 97.1913 159.354C96.7412 158.679 96.5162 157.802 96.5162 156.721V150.668H94.896V149.273L96.6062 149.161L96.8313 146.1H98.3839V149.161H101.332V150.668H98.3839V156.744C98.3839 157.419 98.5039 157.944 98.744 158.319C98.999 158.679 99.4415 158.859 100.072 158.859C100.267 158.859 100.477 158.829 100.702 158.769C100.927 158.694 101.129 158.627 101.309 158.567L101.669 159.962C101.369 160.067 101.039 160.157 100.679 160.232C100.334 160.322 99.9891 160.367 99.6441 160.367ZM104.288 160.097V149.161H106.133V160.097H104.288ZM105.233 146.91C104.873 146.91 104.573 146.805 104.333 146.595C104.108 146.37 103.995 146.07 103.995 145.695C103.995 145.335 104.108 145.043 104.333 144.818C104.573 144.593 104.873 144.48 105.233 144.48C105.593 144.48 105.885 144.593 106.11 144.818C106.35 145.043 106.47 145.335 106.47 145.695C106.47 146.07 106.35 146.37 106.11 146.595C105.885 146.805 105.593 146.91 105.233 146.91ZM114.561 160.367C113.676 160.367 112.844 160.142 112.063 159.692C111.298 159.242 110.676 158.589 110.196 157.734C109.731 156.879 109.498 155.851 109.498 154.651C109.498 153.421 109.731 152.378 110.196 151.523C110.676 150.668 111.298 150.016 112.063 149.566C112.844 149.116 113.676 148.891 114.561 148.891C115.461 148.891 116.294 149.116 117.059 149.566C117.824 150.016 118.439 150.668 118.904 151.523C119.384 152.378 119.624 153.421 119.624 154.651C119.624 155.851 119.384 156.879 118.904 157.734C118.439 158.589 117.824 159.242 117.059 159.692C116.294 160.142 115.461 160.367 114.561 160.367ZM114.561 158.837C115.506 158.837 116.264 158.454 116.834 157.689C117.419 156.909 117.712 155.896 117.712 154.651C117.712 153.391 117.419 152.371 116.834 151.591C116.264 150.811 115.506 150.421 114.561 150.421C113.631 150.421 112.874 150.811 112.288 151.591C111.703 152.371 111.411 153.391 111.411 154.651C111.411 155.896 111.703 156.909 112.288 157.689C112.874 158.454 113.631 158.837 114.561 158.837ZM122.987 160.097V149.161H124.518L124.675 150.736H124.743C125.268 150.211 125.823 149.776 126.408 149.431C126.993 149.071 127.66 148.891 128.41 148.891C129.566 148.891 130.406 149.258 130.931 149.993C131.471 150.713 131.741 151.771 131.741 153.166V160.097H129.896V153.414C129.896 152.393 129.731 151.651 129.401 151.186C129.071 150.721 128.545 150.488 127.825 150.488C127.27 150.488 126.768 150.631 126.318 150.916C125.883 151.201 125.388 151.621 124.833 152.176V160.097H122.987Z" fill="#57AC49"/>
</g>
<rect x="1.57437" y="1.42801" width="161.267" height="178.144" rx="24.8464" stroke="#57AC49" stroke-width="2.8128"/>
<defs>
<clipPath id="clip0_22_1127">
<rect x="0.167969" y="0.0216064" width="164.08" height="180.957" rx="26.2528" fill="white"/>
</clipPath>
</defs>
</svg>
