<svg width="165" height="181" viewBox="0 0 165 181" fill="none" xmlns="http://www.w3.org/2000/svg">
<path d="M47.1471 138.097V123.335H49.0148V138.097H47.1471ZM57.0968 138.367C55.7316 138.367 54.6365 137.872 53.8114 136.882C52.9863 135.877 52.5738 134.466 52.5738 132.651C52.5738 131.466 52.7913 130.446 53.2264 129.591C53.6764 128.721 54.2615 128.053 54.9815 127.588C55.7166 127.123 56.4967 126.891 57.3218 126.891C57.9519 126.891 58.4994 127.003 58.9645 127.228C59.4295 127.453 59.9021 127.761 60.3821 128.151L60.2921 126.283V122.075H62.1598V138.097H60.6296L60.4721 136.814H60.4046C59.9846 137.234 59.4895 137.602 58.9195 137.917C58.3494 138.217 57.7418 138.367 57.0968 138.367ZM57.5018 136.814C58.4619 136.814 59.392 136.312 60.2921 135.307V129.591C59.8271 129.171 59.377 128.878 58.942 128.713C58.5219 128.533 58.0869 128.443 57.6368 128.443C57.0518 128.443 56.5192 128.623 56.0392 128.983C55.5741 129.328 55.1991 129.816 54.914 130.446C54.629 131.061 54.4865 131.789 54.4865 132.629C54.4865 133.934 54.749 134.961 55.2741 135.712C55.7991 136.447 56.5417 136.814 57.5018 136.814ZM70.7592 138.367C69.7841 138.367 68.899 138.142 68.1039 137.692C67.3088 137.227 66.6787 136.567 66.2137 135.712C65.7486 134.856 65.5161 133.836 65.5161 132.651C65.5161 131.451 65.7486 130.423 66.2137 129.568C66.6937 128.713 67.3088 128.053 68.0589 127.588C68.8089 127.123 69.5965 126.891 70.4216 126.891C71.8168 126.891 72.8894 127.356 73.6395 128.286C74.4045 129.216 74.7871 130.461 74.7871 132.021C74.7871 132.216 74.7796 132.411 74.7646 132.606C74.7646 132.786 74.7496 132.944 74.7196 133.079H67.3388C67.4138 134.234 67.7738 135.156 68.4189 135.847C69.079 136.537 69.9341 136.882 70.9842 136.882C71.5092 136.882 71.9893 136.807 72.4243 136.657C72.8744 136.492 73.3019 136.282 73.707 136.027L74.3595 137.242C73.8945 137.542 73.3619 137.804 72.7619 138.029C72.1768 138.254 71.5092 138.367 70.7592 138.367ZM67.3163 131.751H73.1669C73.1669 130.641 72.9269 129.801 72.4468 129.231C71.9818 128.646 71.3217 128.353 70.4666 128.353C69.7015 128.353 69.0115 128.653 68.3964 129.253C67.7963 129.838 67.4363 130.671 67.3163 131.751ZM77.9725 138.097V127.161H79.5027L79.6602 128.736H79.7277C80.2527 128.211 80.8078 127.776 81.3929 127.431C81.9779 127.071 82.6455 126.891 83.3956 126.891C84.5507 126.891 85.3908 127.258 85.9158 127.993C86.4559 128.713 86.7259 129.771 86.7259 131.166V138.097H84.8807V131.414C84.8807 130.393 84.7157 129.651 84.3857 129.186C84.0557 128.721 83.5306 128.488 82.8105 128.488C82.2555 128.488 81.7529 128.631 81.3029 128.916C80.8678 129.201 80.3728 129.621 79.8177 130.176V138.097H77.9725ZM94.2044 138.367C93.0343 138.367 92.2167 138.029 91.7516 137.354C91.3016 136.679 91.0766 135.802 91.0766 134.721V128.668H89.4564V127.273L91.1666 127.161L91.3916 124.1H92.9443V127.161H95.8921V128.668H92.9443V134.744C92.9443 135.419 93.0643 135.944 93.3043 136.319C93.5593 136.679 94.0019 136.859 94.6319 136.859C94.827 136.859 95.037 136.829 95.262 136.769C95.487 136.694 95.6895 136.627 95.8696 136.567L96.2296 137.962C95.9296 138.067 95.5995 138.157 95.2395 138.232C94.8945 138.322 94.5494 138.367 94.2044 138.367ZM98.8479 138.097V127.161H100.693V138.097H98.8479ZM99.793 124.91C99.4329 124.91 99.1329 124.805 98.8929 124.595C98.6679 124.37 98.5553 124.07 98.5553 123.695C98.5553 123.335 98.6679 123.043 98.8929 122.818C99.1329 122.593 99.4329 122.48 99.793 122.48C100.153 122.48 100.446 122.593 100.671 122.818C100.911 123.043 101.031 123.335 101.031 123.695C101.031 124.07 100.911 124.37 100.671 124.595C100.446 124.805 100.153 124.91 99.793 124.91ZM105.184 138.097V128.668H103.698V127.273L105.184 127.161V125.428C105.184 124.318 105.439 123.44 105.949 122.795C106.474 122.135 107.284 121.805 108.379 121.805C108.724 121.805 109.054 121.843 109.369 121.918C109.684 121.978 109.962 122.06 110.202 122.165L109.797 123.583C109.392 123.403 108.979 123.313 108.559 123.313C107.539 123.313 107.029 124.018 107.029 125.428V127.161H109.347V128.668H107.029V138.097H105.184ZM112.102 142.8C111.862 142.8 111.63 142.777 111.405 142.732C111.195 142.687 111 142.635 110.82 142.575L111.18 141.112C111.3 141.142 111.435 141.172 111.585 141.202C111.735 141.247 111.877 141.27 112.012 141.27C112.627 141.27 113.137 141.045 113.542 140.595C113.947 140.16 114.262 139.604 114.487 138.929L114.735 138.119L110.347 127.161H112.26L114.487 133.214C114.652 133.679 114.825 134.181 115.005 134.721C115.2 135.261 115.38 135.787 115.545 136.297H115.635C115.8 135.802 115.958 135.284 116.108 134.744C116.258 134.204 116.408 133.694 116.558 133.214L118.515 127.161H120.316L116.198 138.997C115.943 139.717 115.635 140.362 115.275 140.932C114.93 141.502 114.495 141.952 113.97 142.282C113.46 142.627 112.837 142.8 112.102 142.8ZM41.6975 160.097V145.335H50.2034V146.91H43.5652V151.906H49.1908V153.481H43.5652V160.097H41.6975ZM57.2452 160.367C56.2701 160.367 55.385 160.142 54.5899 159.692C53.7948 159.227 53.1648 158.567 52.6997 157.712C52.2347 156.856 52.0021 155.836 52.0021 154.651C52.0021 153.451 52.2347 152.423 52.6997 151.568C53.1798 150.713 53.7948 150.053 54.5449 149.588C55.295 149.123 56.0826 148.891 56.9077 148.891C58.3028 148.891 59.3754 149.356 60.1255 150.286C60.8906 151.216 61.2731 152.461 61.2731 154.021C61.2731 154.216 61.2656 154.411 61.2506 154.606C61.2506 154.786 61.2356 154.944 61.2056 155.079H53.8248C53.8998 156.234 54.2599 157.156 54.9049 157.847C55.565 158.537 56.4201 158.882 57.4702 158.882C57.9953 158.882 58.4753 158.807 58.9104 158.657C59.3604 158.492 59.788 158.282 60.193 158.027L60.8456 159.242C60.3805 159.542 59.848 159.804 59.2479 160.029C58.6628 160.254 57.9953 160.367 57.2452 160.367ZM53.8023 153.751H59.6529C59.6529 152.641 59.4129 151.801 58.9329 151.231C58.4678 150.646 57.8077 150.353 56.9527 150.353C56.1876 150.353 55.4975 150.653 54.8824 151.253C54.2824 151.838 53.9223 152.671 53.8023 153.751ZM64.4585 160.097V149.161H65.9887L66.1462 151.141H66.2137C66.5888 150.451 67.0463 149.903 67.5864 149.498C68.1264 149.093 68.704 148.891 69.319 148.891C69.7541 148.891 70.1441 148.966 70.4892 149.116L70.1291 150.736C69.9491 150.676 69.7841 150.631 69.6341 150.601C69.4841 150.571 69.2965 150.556 69.0715 150.556C68.6065 150.556 68.1189 150.743 67.6089 151.118C67.1138 151.493 66.6788 152.146 66.3037 153.076V160.097H64.4585ZM76.1855 160.367C75.0154 160.367 74.1978 160.029 73.7328 159.354C73.2827 158.679 73.0577 157.802 73.0577 156.721V150.668H71.4375V149.273L73.1477 149.161L73.3727 146.1H74.9254V149.161H77.8732V150.668H74.9254V156.744C74.9254 157.419 75.0454 157.944 75.2854 158.319C75.5405 158.679 75.983 158.859 76.6131 158.859C76.8081 158.859 77.0181 158.829 77.2431 158.769C77.4682 158.694 77.6707 158.627 77.8507 158.567L78.2107 159.962C77.9107 160.067 77.5807 160.157 77.2206 160.232C76.8756 160.322 76.5306 160.367 76.1855 160.367ZM80.829 160.097V149.161H82.6742V160.097H80.829ZM81.7741 146.91C81.4141 146.91 81.1141 146.805 80.874 146.595C80.649 146.37 80.5365 146.07 80.5365 145.695C80.5365 145.335 80.649 145.043 80.874 144.818C81.1141 144.593 81.4141 144.48 81.7741 144.48C82.1342 144.48 82.4267 144.593 82.6517 144.818C82.8918 145.043 83.0118 145.335 83.0118 145.695C83.0118 146.07 82.8918 146.37 82.6517 146.595C82.4267 146.805 82.1342 146.91 81.7741 146.91ZM88.8075 160.367C88.1174 160.367 87.6148 160.157 87.2998 159.737C86.9998 159.302 86.8497 158.687 86.8497 157.892V144.075H88.6949V158.027C88.6949 158.312 88.7474 158.522 88.8525 158.657C88.9575 158.777 89.0775 158.837 89.2125 158.837C89.2725 158.837 89.325 158.837 89.37 158.837C89.43 158.822 89.5125 158.807 89.6175 158.792L89.8651 160.187C89.7451 160.247 89.6025 160.292 89.4375 160.322C89.2725 160.352 89.0625 160.367 88.8075 160.367ZM93.0682 160.097V149.161H94.9134V160.097H93.0682ZM94.0133 146.91C93.6533 146.91 93.3533 146.805 93.1132 146.595C92.8882 146.37 92.7757 146.07 92.7757 145.695C92.7757 145.335 92.8882 145.043 93.1132 144.818C93.3533 144.593 93.6533 144.48 94.0133 144.48C94.3734 144.48 94.6659 144.593 94.8909 144.818C95.131 145.043 95.251 145.335 95.251 145.695C95.251 146.07 95.131 146.37 94.8909 146.595C94.6659 146.805 94.3734 146.91 94.0133 146.91ZM97.9413 160.097V159.107L103.702 150.668H98.5714V149.161H106.042V150.151L100.282 158.589H106.222V160.097H97.9413ZM113.344 160.367C112.369 160.367 111.484 160.142 110.689 159.692C109.894 159.227 109.264 158.567 108.799 157.712C108.334 156.856 108.101 155.836 108.101 154.651C108.101 153.451 108.334 152.423 108.799 151.568C109.279 150.713 109.894 150.053 110.644 149.588C111.394 149.123 112.182 148.891 113.007 148.891C114.402 148.891 115.475 149.356 116.225 150.286C116.99 151.216 117.372 152.461 117.372 154.021C117.372 154.216 117.365 154.411 117.35 154.606C117.35 154.786 117.335 154.944 117.305 155.079H109.924C109.999 156.234 110.359 157.156 111.004 157.847C111.664 158.537 112.519 158.882 113.569 158.882C114.094 158.882 114.574 158.807 115.009 158.657C115.46 158.492 115.887 158.282 116.292 158.027L116.945 159.242C116.48 159.542 115.947 159.804 115.347 160.029C114.762 160.254 114.094 160.367 113.344 160.367ZM109.901 153.751H115.752C115.752 152.641 115.512 151.801 115.032 151.231C114.567 150.646 113.907 150.353 113.052 150.353C112.287 150.353 111.597 150.653 110.982 151.253C110.381 151.838 110.021 152.671 109.901 153.751ZM120.558 160.097V149.161H122.088L122.245 151.141H122.313C122.688 150.451 123.145 149.903 123.685 149.498C124.226 149.093 124.803 148.891 125.418 148.891C125.853 148.891 126.243 148.966 126.588 149.116L126.228 150.736C126.048 150.676 125.883 150.631 125.733 150.601C125.583 150.571 125.396 150.556 125.171 150.556C124.706 150.556 124.218 150.743 123.708 151.118C123.213 151.493 122.778 152.146 122.403 153.076V160.097H120.558Z" fill="#57AC49"/>
<path d="M78.8216 21.0012C60.2472 20.9725 43.0002 21.4737 43.2176 22.5833L47.7897 29.497C60.0816 28.5213 71.8019 28.1674 83.5429 28.2401C94.5591 28.3071 105.596 28.7509 117.109 29.4052L123.57 23.0386C122.638 21.7492 99.8809 21.0337 78.8216 21.0012ZM79.6085 31.6779C69.4412 31.7008 59.2533 32.0586 48.6118 32.8869C44.0997 56.5436 41.6004 85.4114 47.4729 103.222L42 109.152C68.5301 110.989 95.5324 111.582 121.23 110.357L115.039 103.547C119.035 83.2305 117.793 55.4914 115.08 32.7415C104.478 32.1561 94.3107 31.7659 84.1641 31.6912L111.953 55.2619H97.189C97.9758 59.681 101.413 65.6497 105.037 71.1784C107.087 74.3158 109.178 77.3575 110.773 80.0358C112.367 82.714 113.589 84.9523 113.589 87.2097C113.589 92.5662 109.675 96.9662 103.919 99.8166C98.1622 102.686 90.4384 104.236 81.907 104.236C73.3756 104.236 65.6518 102.686 59.8952 99.8166C54.1386 96.9662 50.2249 92.5662 50.2249 87.2097C50.2249 84.914 51.5088 82.6758 53.1861 79.9592C54.8633 77.2427 57.0376 74.1818 59.1497 71.0062C62.8771 65.4392 66.273 59.4323 66.7493 55.2619H50.432L79.6085 31.6779ZM81.8863 34.4269L60.3715 51.8184H70.3731L70.518 53.3871C71.0771 59.4897 66.6044 66.3958 62.318 72.8236C60.1644 76.0375 58.0108 79.0792 56.4371 81.6618C54.8426 84.2253 53.9522 86.4444 53.9522 87.2097C53.9522 90.0027 55.4017 92.4705 58.1144 94.594C69.3377 93.2931 75.0943 92.5662 80.1469 92.4131C80.2711 90.7871 80.4989 89.161 80.7888 87.5923C73.21 88.0323 66.2316 86.1575 59.3568 83.9001C62.4422 78.3905 68.116 74.5453 73.2307 74.5644C74.1832 74.5644 75.115 74.6792 76.0054 74.9662C78.3247 75.6549 80.4161 79.5001 81.8035 82.7331C82.259 80.7245 82.6939 79.0027 82.8803 77.7401V77.721C83.0666 76.5349 82.5489 73.1297 81.8863 70.3175C81.41 68.2897 80.9131 66.5105 80.6646 65.6688C79.36 65.6688 78.2004 65.4392 77.4342 64.7123C72.1746 59.6618 75.5913 50.3262 80.1055 45.1227C83.3151 50.0584 87.498 55.3766 91.7015 59.0497C90.7904 61.881 89.1338 64.1575 85.9242 65.1714C85.4894 65.2097 84.951 65.2671 84.4126 65.3436C84.7025 66.3384 85.1166 67.8305 85.5308 69.5714C85.8 70.6618 86.0485 71.7905 86.2555 72.9192C87.353 71.9818 88.6162 71.121 89.6515 71.0827H89.8793C95.6773 71.5801 102.242 76.7453 103.898 84.2827C98.2036 81.8723 91.6808 83.2688 86.5247 78.5053C85.9449 82.0636 84.3298 87.4201 83.8949 92.4323C88.8854 92.5853 94.642 93.3123 105.7 94.594C108.412 92.4705 109.862 90.0027 109.862 87.2097C109.862 86.4062 109.013 84.2253 107.501 81.7001C105.99 79.1558 103.94 76.1523 101.848 72.9575C97.6859 66.6062 93.296 59.7001 93.296 53.5401V51.8184H102.386L81.8863 34.4269ZM81.907 95.7992C77.2893 95.7992 72.4024 96.3731 63.1255 97.4636C68.0332 99.5488 74.6181 100.792 81.907 100.792C89.196 100.792 95.7809 99.5488 100.688 97.4636C91.4116 96.3731 86.5247 95.7992 81.907 95.7992Z" fill="#F5C46A"/>
<rect x="1.99038" y="1.42801" width="161.267" height="178.144" rx="24.8464" stroke="#57AC49" stroke-width="2.8128"/>
</svg>
